<?xml version="1.0" encoding="UTF-8"?>
<svg width="512" height="512" viewBox="0 0 512 512" fill="none" xmlns="http://www.w3.org/2000/svg">
  <rect width="512" height="512" fill="#FF4000"/>
  <path d="M256 128C179.96 128 128 179.96 128 256C128 332.04 179.96 384 256 384C332.04 384 384 332.04 384 256C384 179.96 332.04 128 256 128ZM256 352C197.6 352 160 314.4 160 256C160 197.6 197.6 160 256 160C314.4 160 352 197.6 352 256C352 314.4 314.4 352 256 352Z" fill="white"/>
  <path d="M256 192C220.654 192 192 220.654 192 256C192 291.346 220.654 320 256 320C291.346 320 320 291.346 320 256C320 220.654 291.346 192 256 192Z" fill="white"/>
</svg> 